<svg xmlns="http://www.w3.org/2000/svg" viewBox="0 0 1200 700" role="img" aria-labelledby="title desc">
  <title id="title">VERTEX AI OS neural image</title>
  <desc id="desc">A local neural network inspired technology illustration for VERTEX AI OS.</desc>
  <rect width="1200" height="700" fill="#050914"/>
  <defs>
    <linearGradient id="node" x1="0" x2="1" y1="0" y2="1">
      <stop stop-color="#00e5ff"/>
      <stop offset="1" stop-color="#00ff9d"/>
    </linearGradient>
  </defs>
  <rect x="120" y="90" width="960" height="520" rx="38" fill="#0b1220" stroke="#1f3b4a"/>
  <g stroke="#00e5ff" stroke-width="3" opacity="0.5">
    <path d="M240 220 H430 L560 350 H760 L920 190"/>
    <path d="M240 480 H420 L560 350 H760 L930 510"/>
    <path d="M430 220 L430 480"/>
    <path d="M760 350 V190"/>
    <path d="M760 350 V510"/>
  </g>
  <g fill="url(#node)">
    <circle cx="240" cy="220" r="18"/>
    <circle cx="430" cy="220" r="22"/>
    <circle cx="560" cy="350" r="34"/>
    <circle cx="760" cy="350" r="24"/>
    <circle cx="920" cy="190" r="18"/>
    <circle cx="240" cy="480" r="18"/>
    <circle cx="420" cy="480" r="22"/>
    <circle cx="930" cy="510" r="18"/>
  </g>
  <text x="600" y="610" text-anchor="middle" fill="#eef6ff" font-family="Arial, sans-serif" font-size="36" font-weight="700">VERTEX AI OS</text>
</svg>
